<?xml version="1.0" encoding="utf-8" ?>
<svg xmlns="http://www.w3.org/2000/svg" xmlns:xlink="http://www.w3.org/1999/xlink" width="1024" height="1024">
	<path fill="#427AA1" transform="scale(2 2)" d="M293.272 116.719C303.422 118.607 317.907 128.427 325.681 135.197C323.188 135.207 318.335 129.922 315.989 128.348C309.039 123.682 301.205 119.475 293.272 116.719C291.733 119.117 281.288 124.44 286.515 127.677C291.365 130.681 310.506 138.21 313.225 142.897L313.003 143.171C306.652 138.685 300.271 134.591 293.162 131.373C253.786 113.546 211.945 126.641 183.758 157.418C182.003 153.89 205.578 138.401 210.286 134.137C209.524 132.818 202.877 134.502 201.036 128.847L200.232 126.298C199.871 126.648 199.64 126.864 199.144 127.003C191.595 129.122 181.68 139.974 175.7 145.798L175.344 145.505C185.262 133.391 203.682 121.574 218.547 116.719C218.514 99.7228 216.628 85.8218 229.578 72.5714C243.697 58.1251 268.183 58.2123 282.4 72.4309C295.421 85.4549 293.302 100.011 293.272 116.719ZM254.386 75.8317C232.522 78.8444 232.313 94.2472 232.419 112.264C240.625 110.783 248.781 109.698 257.136 109.714C264.496 109.74 272.105 110.378 279.237 112.264C279.253 101.46 280.529 90.7881 272.166 82.493C267.621 77.9843 260.819 75.2329 254.386 75.8317Z"/>
	<path fill="#1D3557" transform="scale(2 2)" d="M325.681 135.197C345.311 149.645 360.997 179.705 364.54 203.108C366.005 212.788 366.042 222.794 366.628 232.565L371.012 309.212C371.672 319.812 371.725 319.31 377.625 328.699C382.212 335.997 393.309 352.191 396.304 359.358C399.515 367.042 396.977 378.389 390.038 383.451C388.934 383.221 385.805 385.738 384.666 386.423C379.664 389.43 352.994 389.645 348.691 388.578C347.637 386.968 349.101 379.051 349.208 376.326C352.027 373.448 379.933 379.666 381.966 372.033C383.108 370.147 383.532 368.48 383.92 366.347C382.29 362.023 378.972 357.807 376.533 353.883C370.897 344.817 364.691 335.277 359.266 326.18L306.102 326.18C302.625 325.748 298.631 326.147 295.103 326.156C285.808 326.18 271.189 326.629 262.125 325.64L262.668 325.502L262.188 325.358L262.432 324.891C262.342 324.312 262.335 324.312 261.932 323.894C259.105 320.959 261.816 315.695 258.042 313.449C263.18 312.571 269.642 313.355 275.289 312.639C302.56 312.64 329.858 312.365 357.125 312.639C357.286 307.557 356.694 302.41 356.39 297.337L354.693 269.636C351.29 216.52 358.547 181.796 313.003 143.171L313.225 142.897C310.506 138.21 291.365 130.681 286.515 127.677C281.288 124.44 291.733 119.117 293.272 116.719C301.205 119.475 309.039 123.682 315.989 128.348C318.335 129.922 323.188 135.207 325.681 135.197Z"/>
	<path fill="#36658A" transform="scale(2 2)" d="M146.272 389.344C137.49 390.496 127.204 389.305 120.686 382.824C107.833 370.044 115.314 357.879 122.489 346.127L133.6 327.663C143.186 312.025 140.863 306.627 142.093 288.362L145.29 236.023C145.89 226.437 145.866 214.798 147.081 205.643C149.77 185.38 160.391 160.187 175.344 145.505L175.7 145.798C181.68 139.974 191.595 129.122 199.144 127.003C199.64 126.864 199.871 126.648 200.232 126.298L201.036 128.847C202.877 134.502 209.524 132.818 210.286 134.137C205.578 138.401 182.003 153.89 183.758 157.418L183.564 157.719C181.986 160.138 179.838 162.274 178.15 164.648C162.185 187.108 161.81 205.647 160.272 232.129C159.647 242.891 158.767 253.647 157.999 264.4L155.977 292.494C155.461 299.168 154.646 305.949 154.724 312.639L234.993 312.639C248.407 312.639 261.88 312.37 275.289 312.639C269.642 313.355 263.18 312.571 258.042 313.449C261.816 315.695 259.105 320.959 261.932 323.894C262.335 324.312 262.342 324.312 262.432 324.891L262.188 325.358L262.668 325.502L262.125 325.64C271.189 326.629 285.808 326.18 295.103 326.156C298.631 326.147 302.625 325.748 306.102 326.18C288.992 326.533 271.807 326.181 254.686 326.18L151.849 326.18C149.295 329.626 147.154 333.427 144.964 337.112L135.504 353.29C133.309 357.115 127.706 363.908 128.455 368.641C129.624 376.022 138.321 375.96 144.128 375.252C151.864 378.233 190.284 373.979 192.341 376.163C191.797 378.195 190.06 379.888 190.324 382.125C190.428 383.006 191.496 388.006 191.036 388.306C187.208 390.807 152.866 386.889 146.272 389.344Z"/>
	<defs>
		<linearGradient id="gradient_0" gradientUnits="userSpaceOnUse" x1="236.10078" y1="385.35059" x2="349.12589" y2="378.9852">
			<stop offset="0" stop-color="#313831"/>
			<stop offset="1" stop-color="#1D3557"/>
		</linearGradient>
	</defs>
	<path fill="url(#gradient_0)" transform="scale(2 2)" d="M211.03 375.252C215.426 375.043 219.937 375.247 224.344 375.248L362.792 375.27C370.158 375.276 376.003 377.051 381.966 372.033C379.933 379.666 352.027 373.448 349.208 376.326C349.101 379.051 347.637 386.968 348.691 388.578C352.994 389.645 379.664 389.43 384.666 386.423C385.805 385.738 388.934 383.221 390.038 383.451C385.398 388.194 378.313 389.274 372.034 389.343C351.871 389.565 331.679 389.342 311.512 389.344C308.508 389.125 300.599 388.951 297.762 389.344L216.019 389.344C215.948 391.747 215.97 394.136 216.019 396.539C211.079 383.131 228.693 391.287 236.526 388.575C235.211 386.823 238.125 387.344 237.949 383.416C244.933 383.975 240.188 382.916 241.219 377.213L241.663 377.114C242.104 377.693 242.003 378.427 242.01 379.122C242.015 379.782 245.221 382.423 245.861 383.451C245.835 374.542 247.129 376.992 240.914 376.476C238.627 376.287 236.498 375.296 234.159 375.241C224.981 375.024 217.838 376.422 207.659 375.252C208.718 375.019 209.948 375.199 211.03 375.252Z"/>
	<path fill="#1D3557" transform="scale(2 2)" d="M144.128 375.252L211.03 375.252C209.948 375.199 208.718 375.019 207.659 375.252C203.682 376.07 195.482 374.363 194.539 378.963C194.069 381.254 193.066 386.577 193.404 388.34C194.783 389.577 200.577 388.069 201.867 389.386C202.118 394.097 201.62 398.523 202.589 403.215C202.936 404.894 204.694 410.403 204.099 411.691C201.783 404.342 201.067 397.006 201.526 389.344L164.597 389.347C158.508 389.349 152.353 389.569 146.272 389.344C152.866 386.889 187.208 390.807 191.036 388.306C191.496 388.006 190.428 383.006 190.324 382.125C190.06 379.888 191.797 378.195 192.341 376.163C190.284 373.979 151.864 378.233 144.128 375.252Z"/>
	<path fill="#1F395B" transform="scale(2 2)" d="M204.099 411.691C204.694 410.403 202.936 404.894 202.589 403.215C201.62 398.523 202.118 394.097 201.867 389.386C200.577 388.069 194.783 389.577 193.404 388.34C193.066 386.577 194.069 381.254 194.539 378.963C195.482 374.363 203.682 376.07 207.659 375.252C217.838 376.422 224.981 375.024 234.159 375.241C236.498 375.296 238.627 376.287 240.914 376.476C247.129 376.992 245.835 374.542 245.861 383.451C245.221 382.423 242.015 379.782 242.01 379.122C242.003 378.427 242.104 377.693 241.663 377.114L241.219 377.213C240.188 382.916 244.933 383.975 237.949 383.416C238.125 387.344 235.211 386.823 236.526 388.575C228.693 391.287 211.079 383.131 216.019 396.539C217.097 445.366 297.636 452.451 297.762 389.344C300.599 388.951 308.508 389.125 311.512 389.344C311.515 406.416 308.111 420.793 295.613 433.212C264.804 463.827 219.589 450.502 204.099 411.691Z"/>
</svg>
