<?xml version="1.0" encoding="utf-8" ?>
<svg xmlns="http://www.w3.org/2000/svg" xmlns:xlink="http://www.w3.org/1999/xlink" width="1024" height="1024">
	<path fill="#427AA1" transform="scale(2 2)" d="M465.832 45.4494C464.577 45.5993 464.084 46.2248 463.417 47.1804C459.74 51.3024 455.635 55.046 451.745 58.9641L387.546 124.201C384.537 127.215 379.657 130.843 378.363 135.075C357.523 108.35 315.776 120.497 312.282 152.499C310.771 166.345 317.079 177.53 327.603 185.802C323.886 186.874 319.85 192.534 317.137 195.234L234.524 277.193C231.009 280.613 227.787 284.892 223.964 287.905C216.843 280.244 202.184 265.913 194.504 260.425C193.597 254.981 199.833 242.368 202.712 237.989C211.564 219.176 220.281 203.788 231.967 186.299C234.796 182.066 238.06 178.156 240.894 173.941C240.416 173.724 239.869 173.635 239.359 173.509C242.979 173.488 258.38 152.786 262.436 148.403C302.53 105.064 347.495 76.2361 403.365 57.7673C416.195 53.5262 457.741 41.9423 465.813 44.0034C466.09 44.637 465.953 44.7906 465.832 45.4494Z"/>
	<path fill="#427AA1" transform="scale(2 2)" d="M463.417 47.1804C464.084 46.2248 464.577 45.5993 465.832 45.4494C460.292 128.531 412.569 206.29 350.76 260.467C348.209 262.703 341.401 266.769 341.837 270.494C336.652 271.119 333.883 275.286 329.99 278.324C316.217 289.072 291.87 304.754 274.918 310.712C270.786 312.435 263.068 315.929 258.809 316.005C256.823 316.041 252.949 314.359 251.562 314.747C254.442 322.22 251.023 321.844 245.856 327.069L233.557 339.701C230.288 343.038 226.733 346.32 223.964 350.093C220.78 347.551 218.106 344.389 215.149 341.59C218.291 335.556 238.894 316.621 245.668 309.755L245.953 309.463C247.799 306.993 253.629 306.25 256.395 305.393C295.516 293.275 332.734 260.402 360.081 231.398C400.158 188.893 427.429 146.392 447.576 90.7393C452.1 78.2427 456.167 65.5129 460.889 53.1032C461.632 51.1499 462.881 49.1466 463.417 47.1804Z"/>
	<path fill="#427AA1" transform="scale(2 2)" d="M378.363 135.075C379.657 130.843 384.537 127.215 387.546 124.201L451.745 58.9641C455.635 55.046 459.74 51.3024 463.417 47.1804C462.881 49.1466 461.632 51.1499 460.889 53.1032C456.167 65.5129 452.1 78.2427 447.576 90.7393C427.429 146.392 400.158 188.893 360.081 231.398C332.734 260.402 295.516 293.275 256.395 305.393C253.629 306.25 247.799 306.993 245.953 309.463L245.668 309.755C238.894 316.621 218.291 335.556 215.149 341.59C213.003 339.737 211.042 337.506 209.06 335.478L162.31 288.665C167.206 281.942 185.641 260.708 190.793 256.692C191.885 258.198 192.847 259.487 194.504 260.425C202.184 265.913 216.843 280.244 223.964 287.905C227.787 284.892 231.009 280.613 234.524 277.193L317.137 195.234C319.85 192.534 323.886 186.874 327.603 185.802L327.603 185.802C361.516 209.919 402.266 167.502 378.363 135.075L378.363 135.075Z"/>
	<path fill="#EDF2F4" transform="scale(2 2)" d="M327.603 185.802C317.079 177.53 310.771 166.345 312.282 152.499C315.776 120.497 357.523 108.35 378.363 135.075L378.363 135.075C375.27 138.493 371.858 141.593 368.579 144.829L354.328 159.077C345.421 167.935 336.763 177.214 327.603 185.802L327.603 185.802Z"/>
	<path fill="#A8DADC" transform="scale(2 2)" d="M327.603 185.802C336.763 177.214 345.421 167.935 354.328 159.077L368.579 144.829C371.858 141.593 375.27 138.493 378.363 135.075C402.266 167.502 361.516 209.919 327.603 185.802Z"/>
	<path fill="#427AA1" transform="scale(2 2)" d="M110.143 265.342L139.456 205.841C155.536 173.727 170.051 168.363 205.931 170.944C212.631 171.426 219.426 171.707 226.092 172.499C220.88 177.587 192.401 227.508 190.793 234.109C181.516 230.974 166.688 222.675 161.336 236.003C163.392 240.412 163.762 245.612 160.739 249.717C155.921 256.262 149.091 254.973 142.087 256.103C132.096 257.716 126.464 267.575 120.995 275.179C117.506 271.799 114.071 268.211 110.143 265.342Z"/>
	<path fill="#427AA1" transform="scale(2 2)" d="M226.092 172.499C230.514 172.913 234.925 173.268 239.359 173.509C239.869 173.635 240.416 173.724 240.894 173.941C238.06 178.156 234.796 182.066 231.967 186.299C220.281 203.788 211.564 219.176 202.712 237.989L190.793 234.109C192.401 227.508 220.88 177.587 226.092 172.499Z"/>
	<path fill="#427AA1" transform="scale(2 2)" d="M274.918 310.712C291.87 304.754 316.217 289.072 329.99 278.324C333.883 275.286 336.652 271.119 341.837 270.494C341.741 275.293 342.285 280.115 342.629 284.899L344.009 305.375C345.875 332.937 336.433 353.452 311.468 368.184C303.914 372.642 295.515 375.874 287.548 379.535L245.953 398.688C240.645 397.196 235.547 393.669 237.674 387.354C240.07 380.241 250.637 380.24 254.242 373.822C258.718 365.854 253.231 355.909 264.008 350.858C270.784 347.683 278.605 353.182 284.153 347.241C293.698 337.02 281.45 319.646 274.918 310.712Z"/>
	<path fill="#0A15A1" transform="scale(2 2)" d="M172.064 310.712C160.687 304.766 118.139 327.903 109.03 334.95C120.407 335.769 124.522 337.322 134.493 342.636L134.311 342.761C132.383 344.055 130.228 345.053 128.21 346.202C98.0117 363.388 83.9979 399.313 77.0607 431.621C108.762 429.238 146.671 412.739 164.03 384.736C165.08 383.043 167.576 376.974 168.803 375.998C173.58 382.963 176.199 390.384 177.498 398.688C190.556 382.175 200.199 362.879 201.52 341.59C201.99 339.717 201.169 337.617 202.712 336.198C218.197 373.102 191.925 419.669 159.498 438.26C164.976 427.266 169.241 424.095 164.874 409.738C162.243 413.862 159.765 417.944 156.4 421.538C134.401 445.04 80.5121 460.995 47.1327 462.057C48.6462 428.676 62.8913 370.05 92.1723 350.898C94.0716 349.655 103.688 345.894 97.1823 344.478C87.0194 342.267 81.6798 345.663 73.4602 351.071C75.3231 347.188 77.9203 343.971 80.5737 340.607C106.956 307.151 137.796 298.046 177.498 309.463C175.74 310.015 173.868 310.326 172.064 310.712Z"/>
	<path fill="#0A15A1" transform="scale(2 2)" d="M109.03 334.95C118.139 327.903 160.687 304.766 172.064 310.712C148.404 318.819 148.009 328.313 142.85 348.403C140.015 346.56 137.274 344.56 134.493 342.636C124.522 337.322 120.407 335.769 109.03 334.95Z"/>
	<path fill="#0A15A1" transform="scale(2 2)" d="M200.494 336.198C200.428 334.261 200.249 332.248 200.494 330.323C201.539 332.274 202.214 334.034 202.712 336.198C201.169 337.617 201.99 339.717 201.52 341.59C201.464 339.73 201.886 337.723 200.966 336.025L200.494 336.198Z"/>
	<path fill="#0A15A1" transform="scale(2 2)" d="M200.494 336.198L200.966 336.025C201.886 337.723 201.464 339.73 201.52 341.59C200.199 362.879 190.556 382.175 177.498 398.688C176.199 390.384 173.58 382.963 168.803 375.998C167.227 373.274 165.027 370.973 163.528 368.187C178.642 365.841 191.818 361.154 197.626 345.352C198.729 342.353 199.397 339.2 200.494 336.198Z"/>
	<path fill="#0A15A1" transform="scale(2 2)" d="M134.493 342.636C137.274 344.56 140.015 346.56 142.85 348.403C141.442 356.697 139.511 364.897 138.112 373.194C146.424 371.099 155.1 369.764 163.528 368.187C165.027 370.973 167.227 373.274 168.803 375.998C167.576 376.974 165.08 383.043 164.03 384.736C146.671 412.739 108.762 429.238 77.0607 431.621C83.9979 399.313 98.0117 363.388 128.21 346.202C130.228 345.053 132.383 344.055 134.311 342.761L134.493 342.636Z"/>
</svg>
