<?xml version="1.0" encoding="utf-8" ?>
<svg xmlns="http://www.w3.org/2000/svg" xmlns:xlink="http://www.w3.org/1999/xlink" width="1024" height="1024">
	<path fill="#427AA1" transform="scale(2 2)" d="M348.212 271.009C347.689 271.142 326.867 293.218 326.794 294.049C325.806 295.352 324.58 296.7 323.278 297.697L322.915 297.468C320.085 300.102 288.834 329.113 288.454 330.135C287.306 330.841 285.319 329.875 283.754 330.811C272.14 329.31 254.657 330.624 242.701 330.816C238.894 330.877 235.172 330.417 231.39 330.344C221.723 330.159 226.596 332.375 218.824 324.959C211.177 317.662 203.333 310.551 195.716 303.234C195.258 302.794 177.352 282.605 181.78 292.099C193.127 316.433 205.122 340.403 215.946 364.997C219.689 373.504 223.859 382.059 226.943 390.817L227.466 391.268L227.466 391.268C226.17 391.557 224.861 391.449 223.557 391.268C212.241 360.624 194.801 328.078 180.879 298.363C176.523 289.067 174.79 283.408 167.941 275.7C148.44 253.757 134.397 227.289 131.583 197.709C125.046 128.996 175.787 67.8345 244.578 61.4298C312.101 55.1431 374.385 105.265 380.512 173.262C383.855 210.371 371.895 242.677 348.212 271.009ZM255.439 66.6209C242.996 84.4022 239.056 119.656 236.561 141.23C231.996 190.79 239.271 240.763 247.458 289.543C248.975 298.582 252.019 319.373 255.439 327.496L259.781 327.496C260.509 321.791 261.699 316.087 262.7 310.421C269.319 272.944 275.126 235.165 277.102 197.126C278.829 163.876 277.516 84.7256 257.367 64.4823C256.7 65.1717 256.075 65.9033 255.439 66.6209ZM227.466 76.9184C231.211 72.3103 236.234 69.5094 240.829 65.9198C205.605 75.1845 180.772 105.636 170.06 139.291C147.866 209.024 188.049 266.888 227.969 319.593C229.919 322.168 232.199 324.625 233.703 327.496L240.829 327.496C226.968 299.835 213.877 271.222 205.278 241.41C203.954 236.822 203.354 231.491 201.389 227.167C200.551 221.263 198.984 215.435 198.117 209.51C192.343 170.007 196.261 120.966 218.954 87.1968C221.489 83.4243 223.9 79.7999 227.466 76.9184ZM193.498 82.7151C144.314 111.97 122.309 170.787 141.169 224.738C153.056 258.74 175.272 277.898 199.402 301.867C202.83 305.272 210.623 313.723 214.259 316.108C217.529 319.374 224.657 328.58 229.407 327.506L229.571 327.237C228.76 326.086 222.973 318.742 222.238 318.205C220.158 314.733 217.087 311.375 214.653 308.106C192.732 278.669 177.772 255.956 166.452 221.296C153.317 171.167 160.194 125.871 197.511 86.6762C206.261 78.5602 210.902 76.8349 219.167 70.9545L218.813 70.9438L218.628 71.3238L218.595 71.0201C209.811 74.2184 201.524 77.8643 193.498 82.7151ZM310.785 150.487C310.658 143.197 308.474 134.773 306.498 127.747C300.64 106.921 286.704 72.1852 262.863 65.9198C268.324 72.036 270.597 81.8976 272.552 89.7227C284.229 136.441 282.188 180.105 278.62 227.167C277.792 230.045 277.74 234.645 277.407 237.716C274.152 267.75 269.402 298.03 262.863 327.496C265.118 327.521 267.377 327.497 269.632 327.496C273.099 317.609 278.411 308.246 282.353 298.508C301.375 251.512 318.853 201.822 310.785 150.487ZM251.576 64.4823C247.386 66.5361 243.268 68.0778 239.395 70.7899C213.926 88.624 202.341 130.199 200.171 159.949C196.76 206.709 208.443 247.873 227.346 290.571C230.507 297.712 234.775 304.962 236.561 312.569C239.16 315.292 242.533 323.659 244.757 327.496C247.047 327.611 249.286 327.607 251.576 327.496C246.969 309.574 243.937 291.213 240.897 272.971C231.56 216.963 226.711 164.781 237.441 107.963C239.891 94.9909 242.647 80.7857 249.449 69.2955C250.145 68.1208 252.09 65.925 251.948 64.5875L251.576 64.4823ZM271.04 65.9198L271.289 66.1292C276.74 70.6503 281.92 73.6104 286.862 79.0317C304.469 98.3491 312.953 131.335 315.445 156.765C320.068 203.935 307.869 242.34 291.419 285.001C285.886 299.347 280.336 314.067 272.797 327.496L280.235 327.496C282.322 322.211 286.641 317.138 289.976 312.569C323.613 265.426 357.024 220.589 346.752 159.202C339.765 117.445 314.277 76.654 271.04 65.9198ZM290.766 70.0172C294.804 73.6106 303.693 77.2691 309.873 82.5162C348.979 115.72 360.01 174.014 345.932 221.963C335.166 258.631 309.412 293.335 286.39 323.734C286.005 324.242 283.706 327.067 283.766 327.423C284.019 328.912 287.935 326.205 288.393 325.854C291.928 323.148 295.138 319.867 298.477 316.914C335.329 281.616 376.577 244.635 377.73 189.668C378.571 149.59 360.054 111.476 327.876 87.671C320.675 82.344 299.355 69.8171 290.766 70.0172Z"/>
	<path fill="#1D3557" transform="scale(2 2)" d="M236.561 312.569C234.775 304.962 230.507 297.712 227.346 290.571C208.443 247.873 196.76 206.709 200.171 159.949C202.341 130.199 213.926 88.624 239.395 70.7899C243.268 68.0778 247.386 66.5361 251.576 64.4823L251.948 64.5875C252.09 65.925 250.145 68.1208 249.449 69.2955C242.647 80.7857 239.891 94.9909 237.441 107.963C226.711 164.781 231.56 216.963 240.897 272.971C243.937 291.213 246.969 309.574 251.576 327.496C249.286 327.607 247.047 327.611 244.757 327.496C242.533 323.659 239.16 315.292 236.561 312.569Z"/>
	<path fill="#1D3557" transform="scale(2 2)" d="M255.439 66.6209C256.075 65.9033 256.7 65.1717 257.367 64.4823C277.516 84.7256 278.829 163.876 277.102 197.126C275.126 235.165 269.319 272.944 262.7 310.421C261.699 316.087 260.509 321.791 259.781 327.496L255.439 327.496C252.019 319.373 248.975 298.582 247.458 289.543C239.271 240.763 231.996 190.79 236.561 141.23C239.274 146.826 238.264 158.868 238.477 165.438C239.135 185.721 244.934 203.582 256.101 220.447C281.457 185.003 269.542 117.553 259.147 78.0882C258.447 75.4308 257.253 68.3097 255.439 66.6209Z"/>
	<defs>
		<linearGradient id="gradient_0" gradientUnits="userSpaceOnUse" x1="342.33276" y1="220.10629" x2="233.68658" y2="183.07492">
			<stop offset="0" stop-color="#A8DADC"/>
			<stop offset="1" stop-color="#1D3557"/>
		</linearGradient>
	</defs>
	<path fill="url(#gradient_0)" transform="scale(2 2)" d="M272.797 327.496C280.336 314.067 285.886 299.347 291.419 285.001C307.869 242.34 320.068 203.935 315.445 156.765C312.953 131.335 304.469 98.3491 286.862 79.0317C281.92 73.6104 276.74 70.6503 271.289 66.1292L271.04 65.9198C314.277 76.654 339.765 117.445 346.752 159.202C357.024 220.589 323.613 265.426 289.976 312.569C286.641 317.138 282.322 322.211 280.235 327.496L272.797 327.496Z"/>
	<path fill="#A8DADC" transform="scale(2 2)" d="M227.466 76.9184L227.076 75.7507C225.081 74.8861 221.717 77.5348 220.101 78.4745C203.657 88.0345 189.399 108.887 182.167 126.313C167.841 160.832 168.883 198.383 197.868 224.394C198.907 225.326 200.012 226.77 201.389 227.167C203.354 231.491 203.954 236.822 205.278 241.41C213.877 271.222 226.968 299.835 240.829 327.496L233.703 327.496C232.199 324.625 229.919 322.168 227.969 319.593C188.049 266.888 147.866 209.024 170.06 139.291C180.772 105.636 205.605 75.1845 240.829 65.9198C236.234 69.5094 231.211 72.3103 227.466 76.9184Z"/>
	<path fill="#427AA1" transform="scale(2 2)" d="M262.863 65.9198C286.704 72.1852 300.64 106.921 306.498 127.747C308.474 134.773 310.658 143.197 310.785 150.487C310.543 174.708 302.392 214.716 278.62 227.167C282.188 180.105 284.229 136.441 272.552 89.7227C270.597 81.8976 268.324 72.036 262.863 65.9198Z"/>
	<path fill="#1D3557" transform="scale(2 2)" d="M236.561 141.23C239.056 119.656 242.996 84.4022 255.439 66.6209C257.253 68.3097 258.447 75.4308 259.147 78.0882C269.542 117.553 281.457 185.003 256.101 220.447C244.934 203.582 239.135 185.721 238.477 165.438C238.264 158.868 239.274 146.826 236.561 141.23Z"/>
	<path fill="#1D3557" transform="scale(2 2)" d="M298.477 316.914C295.138 319.867 291.928 323.148 288.393 325.854C287.935 326.205 284.019 328.912 283.766 327.423C283.706 327.067 286.005 324.242 286.39 323.734C309.412 293.335 335.166 258.631 345.932 221.963C360.01 174.014 348.979 115.72 309.873 82.5162C303.693 77.2691 294.804 73.6106 290.766 70.0172C299.355 69.8171 320.675 82.344 327.876 87.671C360.054 111.476 378.571 149.59 377.73 189.668C376.577 244.635 335.329 281.616 298.477 316.914Z"/>
	<path fill="#1D3557" transform="scale(2 2)" d="M214.259 316.108C210.623 313.723 202.83 305.272 199.402 301.867C175.272 277.898 153.056 258.74 141.169 224.738C122.309 170.787 144.314 111.97 193.498 82.7151C201.524 77.8643 209.811 74.2184 218.595 71.0201L218.628 71.3238L218.813 70.9438L219.167 70.9545C210.902 76.8349 206.261 78.5602 197.511 86.6762L197.511 86.6762C193.816 89.2643 191.464 92.8386 188.41 96.0635C185.863 89.6866 186.886 91.0986 192.613 86.8506L192.576 86.5466C188.202 89.1646 184.733 92.6582 181.102 96.1878C151.876 124.591 130.917 171.189 154.814 209.269C157.559 213.645 161.763 218.895 166.452 221.296C177.772 255.956 192.732 278.669 214.653 308.106C217.087 311.375 220.158 314.733 222.238 318.205C222.973 318.742 228.76 326.086 229.571 327.237L229.407 327.506C224.657 328.58 217.529 319.374 214.259 316.108Z"/>
	<path fill="#1D3557" transform="scale(2 2)" d="M166.452 221.296C161.763 218.895 157.559 213.645 154.814 209.269C130.917 171.189 151.876 124.591 181.102 96.1878C184.733 92.6582 188.202 89.1646 192.576 86.5466L192.613 86.8506C186.886 91.0986 185.863 89.6866 188.41 96.0635C191.464 92.8386 193.816 89.2643 197.511 86.6762L197.511 86.6762C160.194 125.871 153.317 171.167 166.452 221.296Z"/>
	<path fill="#427AA1" transform="scale(2 2)" d="M310.785 150.487C318.853 201.822 301.375 251.512 282.353 298.508C278.411 308.246 273.099 317.609 269.632 327.496C267.377 327.497 265.118 327.521 262.863 327.496C269.402 298.03 274.152 267.75 277.407 237.716C277.74 234.645 277.792 230.045 278.62 227.167C302.392 214.716 310.543 174.708 310.785 150.487Z"/>
	<path fill="#A8DADC" transform="scale(2 2)" d="M367.92 276.245C372.806 266.999 375.259 260.099 387.67 258.587C398.799 257.049 410.405 265.069 412.417 276.245C441.848 274.728 440.601 308.223 421.712 313.94C415.165 315.922 398.227 315.109 390.625 315.095L373.222 315.124C364.079 315.145 355.64 315.992 348.575 309.066C341.069 301.706 341.793 287.97 349.222 280.812C354.567 275.662 361.028 276.072 367.92 276.245Z"/>
	<path fill="#427AA1" transform="scale(2 2)" d="M326.794 294.049C326.867 293.218 347.689 271.142 348.212 271.009C339.871 282.204 338.431 280.643 332.282 294.315L312.209 337.943C304.232 355.034 296.084 375.299 287.336 391.268C286.174 391.519 284.927 391.366 283.754 391.268C284.5 387.697 286.416 384.157 287.955 380.862C301.691 351.447 314.427 320.514 329.201 291.695L326.794 294.049Z"/>
	<path fill="#A8DADC" transform="scale(2 2)" d="M99.3394 297.697C106.16 288.271 106.188 283.772 120.634 281.866C132.297 281.198 140.499 287.327 145.569 297.697C163.019 301.54 173.645 317.806 159.488 331.827C153.051 338.203 145.379 337.758 136.951 337.752L122.625 337.732L106.306 337.753C99.8579 337.756 93.0186 338.21 87.1443 335.047C77.8006 330.015 74.7974 318.538 79.88 309.366C84.4743 301.076 91.037 300.132 99.3394 297.697Z"/>
	<path fill="#427AA1" transform="scale(2 2)" d="M227.466 391.268L226.943 390.817C223.859 382.059 219.689 373.504 215.946 364.997C205.122 340.403 193.127 316.433 181.78 292.099C177.352 282.605 195.258 302.794 195.716 303.234C203.333 310.551 211.177 317.662 218.824 324.959C226.596 332.375 221.723 330.159 231.39 330.344C235.172 330.417 238.894 330.877 242.701 330.816C254.657 330.624 272.14 329.31 283.754 330.811L283.754 330.811C265.66 331.158 245.112 329.605 227.466 330.811C230.05 333.331 240.535 341.365 237.983 345.504L236.561 345.751C235.172 347.271 243.112 385.861 243.315 391.268C241.89 391.51 240.425 391.454 238.998 391.268C238.444 385.107 231.319 339.224 229.059 336.311C224.033 329.836 217.395 324.733 211.548 319.042C201.455 309.218 191.065 298.683 180.878 289.111C193.995 315.014 206.261 341.593 217.919 368.167L223.298 380.411C224.835 383.911 226.685 387.509 227.466 391.268Z"/>
	<path fill="#427AA1" transform="scale(2 2)" d="M283.754 330.811C285.319 329.875 287.306 330.841 288.454 330.135C288.834 329.113 320.085 300.102 322.915 297.468L323.278 297.697L323 298.013C317.954 303.657 309.354 311.589 303.752 316.72C285.256 333.66 284.326 331.888 278.684 358.917C276.433 369.703 274.286 380.53 271.817 391.268C270.613 391.337 269.428 391.307 268.225 391.268L273.308 365.936C274.609 359.205 275.77 352.373 277.553 345.751C278.633 336.916 284.193 333.782 285.238 330.918L283.754 330.811L283.754 330.811Z"/>
	<path fill="#427AA1" transform="scale(2 2)" d="M227.466 330.811C245.112 329.605 265.66 331.158 283.754 330.811L285.238 330.918C284.193 333.782 278.633 336.916 277.553 345.751C265.374 344.571 249.453 346.226 236.561 345.751L237.983 345.504C240.535 341.365 230.05 333.331 227.466 330.811Z"/>
	<path fill="#1D3557" transform="scale(2 2)" d="M215.733 400.983C210.479 400.876 206.046 396.43 209.919 392.82C212.627 390.296 219.927 391.233 223.557 391.268C224.861 391.449 226.17 391.557 227.466 391.268C231.307 391.341 235.162 391.159 238.998 391.268C240.425 391.454 241.89 391.51 243.315 391.268C251.489 391.141 260.066 390.747 268.225 391.268C269.428 391.307 270.613 391.337 271.817 391.268C275.807 391.618 279.78 391.051 283.754 391.268C284.927 391.366 286.174 391.519 287.336 391.268C291.198 391.321 300.773 390.454 303.46 393.166C308.351 398.1 301.551 401.08 296.37 400.983L283.754 400.983L272.797 400.983L261.651 400.983L250.311 400.983L238.998 400.983L228.71 400.983C224.414 400.8 220.038 400.977 215.733 400.983Z"/>
	<path fill="#1D3557" transform="scale(2 2)" d="M215.733 400.983C220.038 400.977 224.414 400.8 228.71 400.983L228.69 423.66C228.687 427.306 228.446 431.116 228.71 434.74L215.733 434.74L215.733 400.983Z"/>
	<path fill="#1D3557" transform="scale(2 2)" d="M228.71 400.983L238.998 400.983C238.996 412.224 238.796 423.503 238.998 434.74L228.71 434.74C228.446 431.116 228.687 427.306 228.69 423.66L228.71 400.983Z"/>
	<path fill="#1D3557" transform="scale(2 2)" d="M238.998 400.983L250.311 400.983L250.341 421.33C250.366 425.779 250.538 430.299 250.311 434.74L238.998 434.74C238.796 423.503 238.996 412.224 238.998 400.983Z"/>
	<path fill="#1D3557" transform="scale(2 2)" d="M250.311 400.983L261.651 400.983L261.651 434.74L250.311 434.74C250.538 430.299 250.366 425.779 250.341 421.33L250.311 400.983Z"/>
	<path fill="#1D3557" transform="scale(2 2)" d="M261.651 400.983L272.797 400.983C272.983 411.422 273.389 424.416 272.797 434.74L261.651 434.74L261.651 400.983Z"/>
	<path fill="#1D3557" transform="scale(2 2)" d="M272.797 400.983L283.754 400.983C283.119 412.208 284.613 423.583 283.754 434.74L272.797 434.74C273.389 424.416 272.983 411.422 272.797 400.983Z"/>
	<path fill="#1D3557" transform="scale(2 2)" d="M283.754 400.983L296.37 400.983L296.367 423.742C296.363 427.377 296.171 431.116 296.37 434.74C292.183 434.597 287.947 434.735 283.754 434.74C284.613 423.583 283.119 412.208 283.754 400.983Z"/>
	<path fill="#A8DADC" transform="scale(2 2)" d="M215.733 434.74L228.71 434.74L238.998 434.74L250.311 434.74L261.651 434.74L272.797 434.74L283.754 434.74C287.947 434.735 292.183 434.597 296.37 434.74C296.23 449.332 281.128 448.857 270.875 448.862L252.269 448.861C239.681 448.859 217.013 453.21 215.733 434.74Z"/>
</svg>
