<?xml version="1.0" encoding="utf-8" ?>
<svg xmlns="http://www.w3.org/2000/svg" xmlns:xlink="http://www.w3.org/1999/xlink" width="1024" height="1024">
	<path fill="#427AA1" transform="scale(2 2)" d="M454.287 71.9008C449.981 76.0632 444.893 81.9206 440.524 86.4579L210.241 323.472C216.412 325.721 222.381 328.435 228.387 331.08L270.785 349.634C273.48 350.791 276.316 351.811 278.943 353.097C275.774 356.694 272.122 359.975 268.856 363.507L223.999 412.143C216.88 420 209.529 427.677 202.868 435.936C202.029 429.569 200.792 423.203 199.728 416.868L185.112 330.616C184.23 325.705 183.325 316.615 181.116 312.483C181.298 312.204 188.045 306.719 188.91 305.966L205.75 291.097C211.418 286.157 217.199 281.34 222.79 276.312L388.447 127.891C402.183 115.612 416.394 103.788 430.376 91.7858L442.115 81.6394C445.176 78.9708 448.32 76.3734 451.019 73.3275C451.862 72.6644 453.335 71.4767 454.426 71.4255L454.287 71.9008Z"/>
	<path fill="#A8DADC" transform="scale(2 2)" d="M210.241 323.472L440.524 86.4579C444.893 81.9206 449.981 76.0632 454.287 71.9008C450.83 83.0522 446.699 94.1283 442.704 105.103L430.063 140.284C423.411 159.026 417.248 177.941 410.811 196.756L353.585 365.238C351.609 371.198 350.281 377.506 347.723 383.237C342.599 380.821 281.452 353.364 278.943 353.097C276.316 351.811 273.48 350.791 270.785 349.634L228.387 331.08C222.381 328.435 216.412 325.721 210.241 323.472Z"/>
	<path fill="#A8DADC" transform="scale(2 2)" d="M58.0789 255.379C63.1275 253.588 67.8527 251.179 72.7147 248.941L441.074 77.5338C444.137 76.0882 447.698 73.9314 451.019 73.3275C448.32 76.3734 445.176 78.9708 442.115 81.6394L430.376 91.7858C416.394 103.788 402.183 115.612 388.447 127.891L222.79 276.312C217.199 281.34 211.418 286.157 205.75 291.097L188.91 305.966C188.045 306.719 181.298 312.204 181.116 312.483L180.779 312.218C171.913 305.166 130.575 288.545 118.841 283.198L76.9939 263.889C70.7064 261.021 64.5134 257.902 58.0789 255.379Z"/>
</svg>
